<?xml version="1.0" encoding="UTF-8" standalone="no"?><!-- Generator: Gravit.io --><svg xmlns="http://www.w3.org/2000/svg" xmlns:xlink="http://www.w3.org/1999/xlink" style="isolation:isolate" viewBox="0 0 8640 8640" width="8640pt" height="8640pt"><g style="isolation:isolate"><path d=" M 2600.909 2822.037 C 3427.657 2822.037 4098.872 3493.252 4098.872 4320 C 4098.872 5146.748 3427.657 5817.963 2600.909 5817.963 L 2600.909 4320 L 2600.909 2822.037 Z " fill="rgb(0,0,0)"/><rect x="1830.528" y="2822.037" width="826.472" height="2995.926" transform="matrix(1,0,0,1,0,0)" fill="rgb(0,0,0)"/><path d=" M 4120.272 2822.037 C 4947.02 2822.037 5618.235 3493.252 5618.235 4320 C 5618.235 5146.748 4947.02 5817.963 4120.272 5817.963 L 4120.272 4320 L 4120.272 2822.037 Z " fill="rgb(0,0,0)"/><rect x="3349.891" y="2822.037" width="804.109" height="2995.926" transform="matrix(1,0,0,1,0,0)" fill="rgb(0,0,0)"/><rect x="4869.253" y="2822.037" width="770.381" height="2995.926" transform="matrix(1,0,0,1,0,0)" fill="rgb(0,0,0)"/><rect x="6039.091" y="2822.037" width="770.381" height="2995.926" transform="matrix(1,0,0,1,0,0)" fill="rgb(0,0,0)"/><rect x="5462.309" y="4060.5" width="770.381" height="519" transform="matrix(0,-1,1,0,1527.5,10167.5)" fill="rgb(0,0,0)"/></g></svg>