<?xml version="1.0" encoding="UTF-8" standalone="no"?><!-- Generator: Gravit.io --><svg xmlns="http://www.w3.org/2000/svg" xmlns:xlink="http://www.w3.org/1999/xlink" style="isolation:isolate" viewBox="0 0 15360 8640" width="15360pt" height="8640pt"><g style="isolation:isolate"><path d=" M 5960.909 2822.037 C 6787.657 2822.037 7458.872 3493.252 7458.872 4320 C 7458.872 5146.748 6787.657 5817.963 5960.909 5817.963 L 5960.909 4320 L 5960.909 2822.037 Z " fill="rgb(0,0,0)"/><rect x="5190.528" y="2822.037" width="826.472" height="2995.926" transform="matrix(1,0,0,1,0,0)" fill="rgb(0,0,0)"/><path d=" M 7480.272 2822.037 C 8307.02 2822.037 8978.235 3493.252 8978.235 4320 C 8978.235 5146.748 8307.02 5817.963 7480.272 5817.963 L 7480.272 4320 L 7480.272 2822.037 Z " fill="rgb(0,0,0)"/><rect x="6709.891" y="2822.037" width="804.109" height="2995.926" transform="matrix(1,0,0,1,0,0)" fill="rgb(0,0,0)"/><rect x="8229.253" y="2822.037" width="770.381" height="2995.926" transform="matrix(1,0,0,1,0,0)" fill="rgb(0,0,0)"/><rect x="9399.091" y="2822.037" width="770.381" height="2995.926" transform="matrix(1,0,0,1,0,0)" fill="rgb(0,0,0)"/><rect x="8822.309" y="4060.5" width="770.381" height="519" transform="matrix(0,-1,1,0,4887.5,13527.5)" fill="rgb(0,0,0)"/></g></svg>